<svg id="Capa_1" enable-background="new 0 0 512 512" height="512" viewBox="0 0 512 512" width="512" xmlns="http://www.w3.org/2000/svg"><g><g><g><g><g><g><g><g><g><g><path d="m315.24 476.432h-273.583v-450.904c0-9.911 8.034-17.945 17.945-17.945h237.692c9.911 0 17.945 8.034 17.945 17.945v450.904z" fill="#d8e2f1"/></g></g></g></g></g></g></g><path d="m297.294 7.583h-63.264c9.911 0 17.945 8.035 17.945 17.946v450.903h63.265v-450.904c0-9.911-8.034-17.945-17.946-17.945z" fill="#b9cbea"/><g fill="#bed8fb"><g><path d="m79.195 91.421v-30.772c0-4.066 3.296-7.362 7.362-7.362h30.772c4.066 0 7.362 3.296 7.362 7.362v30.772c0 4.066-3.296 7.362-7.362 7.362h-30.772c-4.066.001-7.362-3.296-7.362-7.362z"/><path d="m155.701 91.421v-30.772c0-4.066 3.296-7.362 7.362-7.362h30.772c4.066 0 7.362 3.296 7.362 7.362v30.772c0 4.066-3.296 7.362-7.362 7.362h-30.772c-4.066.001-7.362-3.296-7.362-7.362z"/><path d="m232.205 91.421v-30.772c0-4.066 3.296-7.362 7.362-7.362h30.772c4.066 0 7.362 3.296 7.362 7.362v30.772c0 4.066-3.296 7.362-7.362 7.362h-30.772c-4.065.001-7.362-3.296-7.362-7.362z"/></g><g><path d="m79.195 185.046v-30.772c0-4.066 3.296-7.362 7.362-7.362h30.772c4.066 0 7.362 3.296 7.362 7.362v30.772c0 4.066-3.296 7.362-7.362 7.362h-30.772c-4.066 0-7.362-3.296-7.362-7.362z"/><path d="m155.701 185.046v-30.772c0-4.066 3.296-7.362 7.362-7.362h30.772c4.066 0 7.362 3.296 7.362 7.362v30.772c0 4.066-3.296 7.362-7.362 7.362h-30.772c-4.066 0-7.362-3.296-7.362-7.362z"/><path d="m232.205 185.046v-30.772c0-4.066 3.296-7.362 7.362-7.362h30.772c4.066 0 7.362 3.296 7.362 7.362v30.772c0 4.066-3.296 7.362-7.362 7.362h-30.772c-4.065 0-7.362-3.296-7.362-7.362z"/></g><g><path d="m79.195 278.67v-30.772c0-4.066 3.296-7.362 7.362-7.362h30.772c4.066 0 7.362 3.296 7.362 7.362v30.772c0 4.066-3.296 7.362-7.362 7.362h-30.772c-4.066.001-7.362-3.296-7.362-7.362z"/><path d="m155.701 278.67v-30.772c0-4.066 3.296-7.362 7.362-7.362h30.772c4.066 0 7.362 3.296 7.362 7.362v30.772c0 4.066-3.296 7.362-7.362 7.362h-30.772c-4.066.001-7.362-3.296-7.362-7.362z"/></g><g><path d="m79.195 372.295v-30.772c0-4.066 3.296-7.362 7.362-7.362h30.772c4.066 0 7.362 3.296 7.362 7.362v30.772c0 4.066-3.296 7.362-7.362 7.362h-30.772c-4.066 0-7.362-3.296-7.362-7.362z"/><path d="m155.701 372.295v-30.772c0-4.066 3.296-7.362 7.362-7.362h30.772c4.066 0 7.362 3.296 7.362 7.362v30.772c0 4.066-3.296 7.362-7.362 7.362h-30.772c-4.066 0-7.362-3.296-7.362-7.362z"/></g></g></g><path d="m470.343 476.432h-238.138v-248.447c0-6.358 5.154-11.513 11.513-11.513h215.112c6.358 0 11.513 5.154 11.513 11.513z" fill="#cbe2ff"/><path d="m458.83 216.472h-63.265c6.358 0 11.513 5.154 11.513 11.513v248.447h63.265v-248.447c0-6.359-5.155-11.513-11.513-11.513z" fill="#bed8fb"/><g fill="#f4fbff"><g><path d="m299.3 295.38h-29.142c-2.936 0-5.316-2.38-5.316-5.316v-28.401c0-2.936 2.38-5.316 5.316-5.316h29.142c2.936 0 5.316 2.38 5.316 5.316v28.401c0 2.936-2.38 5.316-5.316 5.316z"/><path d="m299.3 356.689h-29.142c-2.936 0-5.316-2.38-5.316-5.316v-28.401c0-2.936 2.38-5.316 5.316-5.316h29.142c2.936 0 5.316 2.38 5.316 5.316v28.401c0 2.936-2.38 5.316-5.316 5.316z"/><path d="m299.3 417.999h-29.142c-2.936 0-5.316-2.38-5.316-5.316v-28.401c0-2.936 2.38-5.316 5.316-5.316h29.142c2.936 0 5.316 2.38 5.316 5.316v28.401c0 2.935-2.38 5.316-5.316 5.316z"/></g><g><path d="m365.845 295.38h-29.142c-2.936 0-5.316-2.38-5.316-5.316v-28.401c0-2.936 2.38-5.316 5.316-5.316h29.142c2.936 0 5.316 2.38 5.316 5.316v28.401c0 2.936-2.38 5.316-5.316 5.316z"/><path d="m365.845 356.689h-29.142c-2.936 0-5.316-2.38-5.316-5.316v-28.401c0-2.936 2.38-5.316 5.316-5.316h29.142c2.936 0 5.316 2.38 5.316 5.316v28.401c0 2.936-2.38 5.316-5.316 5.316z"/><path d="m365.845 417.999h-29.142c-2.936 0-5.316-2.38-5.316-5.316v-28.401c0-2.936 2.38-5.316 5.316-5.316h29.142c2.936 0 5.316 2.38 5.316 5.316v28.401c0 2.935-2.38 5.316-5.316 5.316z"/></g><g><path d="m432.39 295.38h-29.142c-2.936 0-5.316-2.38-5.316-5.316v-28.401c0-2.936 2.38-5.316 5.316-5.316h29.142c2.936 0 5.316 2.38 5.316 5.316v28.401c0 2.936-2.38 5.316-5.316 5.316z"/><path d="m432.39 356.689h-29.142c-2.936 0-5.316-2.38-5.316-5.316v-28.401c0-2.936 2.38-5.316 5.316-5.316h29.142c2.936 0 5.316 2.38 5.316 5.316v28.401c0 2.936-2.38 5.316-5.316 5.316z"/><path d="m432.39 417.999h-29.142c-2.936 0-5.316-2.38-5.316-5.316v-28.401c0-2.936 2.38-5.316 5.316-5.316h29.142c2.936 0 5.316 2.38 5.316 5.316v28.401c0 2.935-2.38 5.316-5.316 5.316z"/></g></g><path d="m417.819 26.301c-31.086 0-56.287 25.201-56.287 56.287 0 43.461 39.079 75.623 52.113 85.142 2.487 1.816 5.861 1.816 8.348 0 13.034-9.519 52.113-41.681 52.113-85.142 0-31.086-25.201-56.287-56.287-56.287zm0 84.262c-15.45 0-27.975-12.525-27.975-27.975s12.525-27.975 27.975-27.975 27.975 12.525 27.975 27.975-12.525 27.975-27.975 27.975z" fill="#e28086"/></g><path d="m485.343 504.417h-458.686c-10.58 0-19.157-8.577-19.157-19.157 0-10.58 8.577-19.157 19.157-19.157h458.687c10.58 0 19.157 8.577 19.157 19.157-.001 10.58-8.578 19.157-19.158 19.157z" fill="#407093"/><path d="m485.343 466.104h-44.108v19.157c0 10.58-8.577 19.157-19.157 19.157h63.265c10.58 0 19.157-8.577 19.157-19.157 0-10.581-8.577-19.157-19.157-19.157z" fill="#365e7d"/><g><path d="m485.344 458.604h-7.501v-230.62c0-10.483-8.529-19.012-19.013-19.012h-136.09v-183.444c0-14.03-11.415-25.445-25.445-25.445h-237.692c-14.03 0-25.445 11.415-25.445 25.445v433.075h-7.501c-14.699.001-26.657 11.959-26.657 26.658 0 14.698 11.958 26.656 26.656 26.656h458.688c14.698 0 26.656-11.958 26.656-26.656 0-14.699-11.958-26.657-26.656-26.657zm-436.187-433.076c0-5.76 4.686-10.445 10.445-10.445h237.692c5.76 0 10.445 4.686 10.445 10.445v183.444h-64.021c-10.484 0-19.014 8.528-19.014 19.012v172.483c0 4.143 3.357 7.5 7.5 7.5s7.5-3.357 7.5-7.5v-172.483c0-2.212 1.801-4.012 4.014-4.012h215.112c2.213 0 4.013 1.8 4.013 4.012v230.619h-223.138v-23.073c0-4.143-3.357-7.5-7.5-7.5s-7.5 3.357-7.5 7.5v23.073h-175.548zm436.187 471.389h-458.688c-6.428 0-11.656-5.229-11.656-11.656s5.229-11.657 11.656-11.657h458.688c6.428 0 11.656 5.229 11.656 11.657s-5.229 11.656-11.656 11.656z"/><path d="m117.329 45.787h-30.771c-8.195 0-14.862 6.667-14.862 14.862v30.771c0 8.195 6.667 14.862 14.862 14.862h30.771c8.195 0 14.862-6.667 14.862-14.862v-30.771c0-8.195-6.667-14.862-14.862-14.862zm-.138 45.496h-30.496v-30.496h30.496z"/><path d="m193.835 45.787h-30.772c-8.194 0-14.861 6.667-14.861 14.862v30.771c0 8.195 6.667 14.862 14.861 14.862h30.772c8.195 0 14.862-6.667 14.862-14.862v-30.771c0-8.195-6.667-14.862-14.862-14.862zm-.138 45.496h-30.496v-30.496h30.496z"/><path d="m239.567 106.283h30.772c8.195 0 14.862-6.667 14.862-14.862v-30.772c0-8.195-6.667-14.862-14.862-14.862h-30.772c-8.195 0-14.862 6.667-14.862 14.862v30.771c0 8.196 6.667 14.863 14.862 14.863zm.138-45.496h30.497v30.496h-30.497z"/><path d="m117.329 139.412h-30.771c-8.195 0-14.862 6.667-14.862 14.862v30.771c0 8.195 6.667 14.862 14.862 14.862h30.771c8.195 0 14.862-6.667 14.862-14.862v-30.771c0-8.195-6.667-14.862-14.862-14.862zm-.138 45.496h-30.496v-30.496h30.496z"/><path d="m193.835 139.412h-30.772c-8.194 0-14.861 6.667-14.861 14.862v30.771c0 8.195 6.667 14.862 14.861 14.862h30.772c8.195 0 14.862-6.667 14.862-14.862v-30.771c0-8.195-6.667-14.862-14.862-14.862zm-.138 45.496h-30.496v-30.496h30.496z"/><path d="m239.567 199.908h30.772c8.195 0 14.862-6.667 14.862-14.862v-30.771c0-8.195-6.667-14.862-14.862-14.862h-30.772c-8.195 0-14.862 6.667-14.862 14.862v30.771c0 8.195 6.667 14.862 14.862 14.862zm.138-45.496h30.497v30.496h-30.497z"/><path d="m117.329 233.036h-30.771c-8.195 0-14.862 6.667-14.862 14.862v30.771c0 8.195 6.667 14.862 14.862 14.862h30.771c8.195 0 14.862-6.667 14.862-14.862v-30.771c0-8.195-6.667-14.862-14.862-14.862zm-.138 45.496h-30.496v-30.496h30.496z"/><path d="m193.835 233.036h-30.772c-8.194 0-14.861 6.667-14.861 14.862v30.771c0 8.195 6.667 14.862 14.861 14.862h30.772c8.195 0 14.862-6.667 14.862-14.862v-30.771c0-8.195-6.667-14.862-14.862-14.862zm-.138 45.496h-30.496v-30.496h30.496z"/><path d="m117.329 326.661h-30.771c-8.195 0-14.862 6.667-14.862 14.861v30.772c0 8.195 6.667 14.862 14.862 14.862h30.771c8.195 0 14.862-6.667 14.862-14.862v-30.772c0-8.194-6.667-14.861-14.862-14.861zm-.138 45.496h-30.496v-30.496h30.496z"/><path d="m193.835 326.661h-30.772c-8.194 0-14.861 6.667-14.861 14.861v30.772c0 8.195 6.667 14.862 14.861 14.862h30.772c8.195 0 14.862-6.667 14.862-14.862v-30.772c0-8.194-6.667-14.861-14.862-14.861zm-.138 45.496h-30.496v-30.496h30.496z"/><path d="m270.159 302.88h29.141c7.067 0 12.816-5.749 12.816-12.815v-28.401c0-7.067-5.749-12.816-12.816-12.816h-29.141c-7.067 0-12.816 5.749-12.816 12.816v28.401c0 7.066 5.749 12.815 12.816 12.815zm2.184-39.033h24.773v24.033h-24.773z"/><path d="m270.159 364.189h29.141c7.067 0 12.816-5.749 12.816-12.816v-28.4c0-7.067-5.749-12.816-12.816-12.816h-29.141c-7.067 0-12.816 5.749-12.816 12.816v28.4c0 7.067 5.749 12.816 12.816 12.816zm2.184-39.033h24.773v24.033h-24.773z"/><path d="m270.159 425.499h29.141c7.067 0 12.816-5.749 12.816-12.816v-28.401c0-7.067-5.749-12.816-12.816-12.816h-29.141c-7.067 0-12.816 5.749-12.816 12.816v28.401c0 7.067 5.749 12.816 12.816 12.816zm2.184-39.034h24.773v24.034h-24.773z"/><path d="m336.703 302.88h29.142c7.067 0 12.816-5.749 12.816-12.815v-28.401c0-7.067-5.749-12.816-12.816-12.816h-29.142c-7.067 0-12.816 5.749-12.816 12.816v28.401c0 7.066 5.749 12.815 12.816 12.815zm2.184-39.033h24.774v24.033h-24.774z"/><path d="m336.703 364.189h29.142c7.067 0 12.816-5.749 12.816-12.816v-28.4c0-7.067-5.749-12.816-12.816-12.816h-29.142c-7.067 0-12.816 5.749-12.816 12.816v28.4c0 7.067 5.749 12.816 12.816 12.816zm2.184-39.033h24.774v24.033h-24.774z"/><path d="m336.703 425.499h29.142c7.067 0 12.816-5.749 12.816-12.816v-28.401c0-7.067-5.749-12.816-12.816-12.816h-29.142c-7.067 0-12.816 5.749-12.816 12.816v28.401c0 7.067 5.749 12.816 12.816 12.816zm2.184-39.034h24.774v24.034h-24.774z"/><path d="m403.248 302.88h29.142c7.067 0 12.816-5.749 12.816-12.815v-28.401c0-7.067-5.749-12.816-12.816-12.816h-29.142c-7.067 0-12.816 5.749-12.816 12.816v28.401c0 7.066 5.749 12.815 12.816 12.815zm2.184-39.033h24.774v24.033h-24.774z"/><path d="m403.248 364.189h29.142c7.067 0 12.816-5.749 12.816-12.816v-28.4c0-7.067-5.749-12.816-12.816-12.816h-29.142c-7.067 0-12.816 5.749-12.816 12.816v28.4c0 7.067 5.749 12.816 12.816 12.816zm2.184-39.033h24.774v24.033h-24.774z"/><path d="m403.248 425.499h29.142c7.067 0 12.816-5.749 12.816-12.816v-28.401c0-7.067-5.749-12.816-12.816-12.816h-29.142c-7.067 0-12.816 5.749-12.816 12.816v28.401c0 7.067 5.749 12.816 12.816 12.816zm2.184-39.034h24.774v24.034h-24.774z"/><path d="m409.222 173.787c5.141 3.754 12.053 3.756 17.195 0 12.97-9.473 44.086-35.442 52.868-71.912.97-4.027-1.509-8.078-5.536-9.048-4.028-.965-8.078 1.51-9.048 5.536-7.762 32.233-37.515 56.248-46.882 63.128-11.785-8.652-48.787-39.035-48.787-78.903 0-26.901 21.886-48.787 48.786-48.787 21.132 0 39.761 13.476 46.356 33.532 1.294 3.935 5.533 6.077 9.468 4.782 3.935-1.294 6.076-5.533 4.782-9.468-8.625-26.227-32.98-43.847-60.606-43.847-35.172 0-63.786 28.615-63.786 63.787 0 47.223 42.242 81.744 55.19 91.2z"/><path d="m417.818 47.112c-19.561 0-35.475 15.914-35.475 35.476s15.914 35.476 35.475 35.476c19.562 0 35.476-15.914 35.476-35.476s-15.914-35.476-35.476-35.476zm0 55.951c-11.29 0-20.475-9.186-20.475-20.476s9.185-20.476 20.475-20.476 20.476 9.186 20.476 20.476-9.186 20.476-20.476 20.476z"/></g></g></svg>